<svg id="Camada_1" data-name="Camada 1" xmlns="http://www.w3.org/2000/svg" viewBox="0 0 479.05 479.44"><defs><style>.cls-1{fill:#991d2a;}</style></defs><title>aniversario</title><g id="_010101ff" data-name="#010101ff"><path class="cls-1" d="M170.2,151.26C193.51,101.05,216.6,50.74,240,.56c24.45,52.44,48.62,105,72.92,157.51.51,1,1.07,2.28,2.43,2.33,54.72,10.64,109.5,21,164.21,31.74-40.12,37.11-80.44,74-120.52,111.14Q379.52,391.62,399.79,480h-.33c-2.24-2.06-5.06-3.25-7.69-4.71L240,391.82q-77.82,42.76-155.62,85.56A29,29,0,0,0,80.66,480h-.42Q100.42,391.61,121,303.28C80.9,266.13,40.54,229.31.5,192.14,52.66,181.91,104.88,172,157.06,161.88c2.95-.64,6-.86,8.87-1.91,1.83-2.68,2.86-5.8,4.27-8.71m21.63,28.68c-1.32,2.68-2.26,5.57-3.95,8.05-2.56.94-5.31,1.18-8,1.74-37.24,7.21-74.5,14.31-111.73,21.59,5,5.13,10.55,9.77,15.74,14.74Q120,259.17,156,292.38c-9.76,41.68-19.22,83.44-28.95,125.14,11.13-5.48,21.79-11.87,32.72-17.74,26.77-14.67,53.48-29.44,80.25-44.1,22.25,12.18,44.45,24.46,66.69,36.66,15.45,8.35,30.65,17.19,46.27,25.21-9.74-41.7-19.18-83.48-29-125.17,16.43-15,32.71-30.2,49.14-45.23,12.81-12,26-23.64,38.64-35.85-39.92-7.78-79.87-15.38-119.79-23.14C274.55,150.84,257.5,113.33,240,76,223.8,110.61,207.93,145.33,191.83,179.94Z" transform="translate(-0.5 -0.56)"/></g></svg>