<svg id="Camada_1" data-name="Camada 1" xmlns="http://www.w3.org/2000/svg" viewBox="0 0 447.9 447.31"><defs><style>.cls-1{fill:#fff;}</style></defs><title>audio</title><path class="cls-1" d="M159.77,307.69c0-2.23,0-4,0-5.81q0-116-.14-232c0-5,1.69-6.4,6.09-7.37Q257,42.44,348.13,22,395.91,11.41,443.69.77c1.13-.25,2.31-.28,4.07-.48V6.12c0,96.81-.23,193.63.13,290.44.13,34.5-15.7,58.67-45.26,74.52-41.33,22.16-95.23,14.18-126.24-18.38-13.67-14.35-21.17-31.56-20.36-51.45.87-21.59,10.66-39.33,27.13-53,22.41-18.67,48.51-25.92,77.49-23.82,19.89,1.44,37.8,8.13,54.72,19.48V137.11L191.77,186.79c0,2.34,0,4.32,0,6.3q0,81.48,0,163c0,46.65-24.07,77.64-69.75,88.22-34.06,7.9-65.82,2-93.56-20.09C11.09,410.38.75,392.14,0,369.75c-.72-22.63,8.87-41.33,25.6-56.24s36.77-22.74,59.1-25c26.72-2.64,51.09,3.59,73.28,18.6A9.71,9.71,0,0,0,159.77,307.69Zm256-268.41L192,89v65.17a6.3,6.3,0,0,0,1.16,0l79.09-17.51q70.11-15.54,140.2-31.18c1.3-.29,3.19-2.15,3.2-3.3C415.82,81.54,415.76,60.9,415.76,39.28ZM95.67,319.55c-18.09,0-34.47,5-48.35,16.82-20.8,17.75-21.05,43.53-.8,61.9,26,23.61,73.29,23.39,99-.47,19.34-17.95,19.46-42.41,0-60.2C131.47,324.75,114.47,319.6,95.67,319.55Zm248-64.06c-8.26-.11-23.35,4.22-36.7,13.92-25,18.14-26,46.91-2.39,66.69,26.15,22,72.29,20.77,97.1-2.48,19.09-17.9,19.19-42.15,0-59.86C387.67,260.85,370.69,255.64,343.7,255.49Z" transform="translate(0 -0.29)"/></svg>