<svg id="Camada_1" data-name="Camada 1" xmlns="http://www.w3.org/2000/svg" viewBox="0 0 440 440"><defs><style>.cls-1{fill:#fff;}</style></defs><title>down</title><path class="cls-1" d="M439.8,203.8v32c-126.35.08-252.69-.15-379,.11q47.13,47.34,94.44,94.5c14.22,14.39,28.79,28.45,42.79,43-7.5,7.2-14.63,14.78-22.18,21.94-28-27.57-55.56-55.51-83.39-83.22C61.71,281.35,30.8,250.74.2,219.8c10.59-10.94,21.5-21.55,32.21-32.37C80.24,139.72,127.8,91.8,175.8,44.2c7.24,7,14.32,14.11,21.38,21.27,1.16.88-.47,2-1,2.71Q128.39,135.89,60.7,203.7c14.69.22,29.38,0,44.07.1Z"/></svg>