<svg id="Camada_1" data-name="Camada 1" xmlns="http://www.w3.org/2000/svg" viewBox="0 0 480 480"><defs><style>.cls-1{fill:#82212d;}</style></defs><title>casa</title><g id="_010101ff" data-name="#010101ff"><path class="cls-1" d="M239.3,0h1.15c1.62,2.79,4.16,4.83,6.38,7.1Q275.41,35.66,304,64.24c0-10.75,0-21.49,0-32.24h80c0,37.39.06,74.77,0,112.16,30.73,30.88,61.63,61.61,92.39,92.47.4.55,1.2,1.66,1.59,2.22l2.07.45v1.15c-2.8,1.63-4.83,4.18-7.11,6.41-5.16,5.13-10.23,10.34-15.46,15.4-8.38-8.59-16.95-17-25.42-25.5q0,121.62,0,243.24H272q0-80,0-160H208V480H48q0-121.62,0-243.24c-8.48,8.47-17,16.87-25.41,25.45-5.94-5.66-11.6-11.62-17.49-17.34a18.3,18.3,0,0,1-3-3.72L0,240.7v-1.16a18.39,18.39,0,0,0,2.63-1.91Q118.33,121.83,234.11,6.12a21.64,21.64,0,0,1,4.74-4.06c.12-.51.34-1.54.45-2.06M80,204.79q.09,121.6,0,243.21h96q0-80,0-160,64,0,128,0,0,80,0,160h96q0-121.54-.06-243.09c-5-5.59-10.62-10.66-15.84-16.08q-72.12-72-144.16-144-80,80-160,160M336,64c0,10.73,0,21.46-.05,32.19,5.32,5.36,10.63,10.72,16,16Q352,88.1,352,64Z"/></g></svg>