<?xml version="1.0" encoding="UTF-8" ?>
<!DOCTYPE svg PUBLIC "-//W3C//DTD SVG 1.1//EN" "http://www.w3.org/Graphics/SVG/1.1/DTD/svg11.dtd">
<svg width="400pt" height="400pt" viewBox="0 0 400 400" version="1.1" xmlns="http://www.w3.org/2000/svg">
<g>
<path fill="#333" opacity="1.00" d=" M 353.55 24.20 C 361.01 31.55 368.39 39.00 375.80 46.41 C 324.60 97.61 273.39 148.79 222.22 200.01 C 273.38 251.22 324.59 302.39 375.78 353.57 C 368.41 361.01 361.01 368.41 353.57 375.78 C 302.38 324.59 251.22 273.39 200.01 222.22 C 148.79 273.39 97.61 324.60 46.41 375.80 C 38.99 368.41 31.59 361.00 24.20 353.58 C 75.40 302.39 126.60 251.21 177.77 199.99 C 126.60 148.79 75.42 97.60 24.22 46.42 C 31.57 38.98 38.99 31.60 46.41 24.22 C 97.60 75.40 148.78 126.61 199.99 177.77 C 251.20 126.60 302.40 75.43 353.55 24.20 Z" />
</g>
</svg>
