<?xml version="1.0" encoding="UTF-8" ?>
<!DOCTYPE svg PUBLIC "-//W3C//DTD SVG 1.1//EN" "http://www.w3.org/Graphics/SVG/1.1/DTD/svg11.dtd">
<svg width="384pt" height="384pt" viewBox="0 0 384 384" version="1.1" xmlns="http://www.w3.org/2000/svg">
<g id="#ffffffff">
<path fill="#ffffff" opacity="1.00" d=" M 0.63 123.06 C 7.66 115.30 15.17 107.98 22.47 100.48 C 76.92 157.39 131.27 214.39 185.69 271.32 C 187.80 273.41 189.70 275.72 192.00 277.62 C 204.83 264.90 217.00 251.52 229.54 238.51 C 269.68 196.36 309.81 154.21 349.94 112.05 C 353.64 108.23 357.13 104.20 361.09 100.65 C 368.57 107.68 376.17 114.63 383.30 122.01 C 376.29 130.06 368.65 137.54 361.37 145.34 C 305.84 203.79 250.28 262.20 194.76 320.65 C 193.90 321.57 192.96 322.41 191.99 323.23 C 190.30 321.86 188.84 320.24 187.32 318.68 C 134.55 263.43 81.80 208.15 28.99 152.94 C 19.61 142.91 9.90 133.19 0.63 123.06 Z" />
</g>
</svg>
