<?xml version="1.0" encoding="UTF-8" ?>
<!DOCTYPE svg PUBLIC "-//W3C//DTD SVG 1.1//EN" "http://www.w3.org/Graphics/SVG/1.1/DTD/svg11.dtd">
<svg width="480pt" height="480pt" viewBox="0 0 480 480" version="1.1" xmlns="http://www.w3.org/2000/svg">
<g>
<path fill="#333" opacity="1.00" d=" M 0.00 64.00 C 160.00 64.06 320.00 63.88 480.00 64.09 L 480.00 416.00 C 320.00 416.00 160.00 416.00 0.00 416.00 L 0.00 64.00 M 31.90 96.07 C 35.34 99.64 38.88 103.11 42.30 106.70 C 95.78 159.55 148.99 212.68 202.46 265.55 C 208.63 271.40 214.62 277.51 221.54 282.50 C 225.47 285.34 230.03 287.56 234.92 287.95 C 241.15 288.08 247.75 288.65 253.42 285.52 C 261.87 281.01 268.52 273.92 275.64 267.64 C 320.05 223.73 364.18 179.52 408.57 135.58 C 421.68 122.33 435.23 109.52 448.12 96.07 C 421.41 95.90 394.71 96.05 368.00 96.00 C 255.97 96.05 143.93 95.90 31.90 96.07 M 32.07 140.88 C 31.96 210.25 31.92 279.62 32.09 348.98 C 54.77 330.73 77.18 312.15 99.75 293.76 C 115.40 280.77 131.39 268.19 146.82 254.95 C 142.10 249.44 136.60 244.66 131.57 239.43 C 98.25 206.73 65.53 173.43 32.07 140.88 M 438.16 150.16 C 404.12 184.11 370.02 218.01 335.88 251.85 C 334.91 252.84 334.03 253.91 333.15 254.97 C 337.79 259.34 342.96 263.09 347.81 267.22 C 381.19 294.46 414.42 321.89 447.92 348.99 C 448.06 279.62 448.06 210.24 447.92 140.87 C 444.40 143.68 441.37 147.03 438.16 150.16 M 165.33 280.29 C 123.28 314.91 80.91 349.13 38.97 383.88 C 117.64 384.16 196.32 383.92 275.00 384.00 C 330.34 383.92 385.68 384.16 441.02 383.88 C 399.25 349.31 357.09 315.20 315.21 280.76 C 313.61 279.68 312.21 277.77 310.27 277.49 C 298.74 288.20 288.18 300.15 275.13 309.10 C 254.87 323.29 225.87 323.45 205.45 309.50 C 192.12 300.54 181.46 288.35 169.73 277.53 C 168.02 277.54 166.76 279.41 165.33 280.29 Z" />
</g>
</svg>
