<svg id="Camada_1" data-name="Camada 1" xmlns="http://www.w3.org/2000/svg" viewBox="0 0 480 480"><defs><style>.cls-1{fill:#fff;}</style></defs><title>emoji</title><path class="cls-1" d="M0,255V225a26.88,26.88,0,0,0,.85-3.86c2.41-32.8,11.05-63.91,26.79-92.74C64.73,60.46,121.34,18.78,197.44,3.94,206.54,2.17,215.81,1.29,225,0h30a20.14,20.14,0,0,0,3.33.81c41.36,3,79.49,15.86,113.83,39,56.43,38,91.24,90.62,103.88,157.61,1.72,9.11,2.66,18.37,4,27.57v30a19.91,19.91,0,0,0-.82,3.34c-2.69,37.15-13.34,71.92-32.66,103.69-37.76,62.1-92.46,100.3-164,114-9.1,1.74-18.36,2.65-27.54,4H225a19.8,19.8,0,0,0-3.32-.82c-41.54-3.06-79.82-16-114.25-39.27-56.19-38-90.89-90.51-103.48-157.32C2.23,273.47,1.3,264.2,0,255ZM239.6,448c114.58.36,208-92.6,208.4-207.48.44-114.58-92.45-208-207.36-208.5S32.22,124.7,32,239.72C31.79,354.4,124.72,447.63,239.6,448Z"/><path class="cls-1" d="M336.15,297.72c8.28,5,16.39,9.8,24.49,14.67.83.5,1.57,1.13,2.81,2-28.82,43.65-68.49,68-120.91,69.43-58.23,1.54-104-32.34-125.66-69.94l26.92-16.21c23,34.74,54.68,54.17,96.41,54.11C281.72,351.74,313.25,332.34,336.15,297.72Z"/><path class="cls-1" d="M272,191.63A32,32,0,1,1,303.76,224,32,32,0,0,1,272,191.63Z"/><path class="cls-1" d="M176.27,160A32,32,0,1,1,144,191.84,32.08,32.08,0,0,1,176.27,160Z"/></svg>