<svg id="Camada_1" data-name="Camada 1" xmlns="http://www.w3.org/2000/svg" viewBox="0 0 480 479.99"><defs><style>.cls-1{fill:#fff;}</style></defs><title>filme</title><path class="cls-1" d="M225,0h30a20.14,20.14,0,0,0,3.33.81c41.36,3,79.49,15.86,113.83,39,56.43,38,91.24,90.62,103.88,157.61,1.72,9.11,2.66,18.37,4,27.57v30c-.3,1.6-.73,3.19-.87,4.8-5.59,62.22-31.55,114.44-77,157.08-2,1.83-4,3.59-6,5.38l.84,1.31c10.82-5,21.79-9.66,32.43-15A188.56,188.56,0,0,0,480,371v44a9.37,9.37,0,0,0-2.2.92c-30,22.84-64,37.21-100.08,47.1-44.13,12.1-89.23,16.73-134.87,17-49.11.25-94.54-12.52-135.31-40C51.26,402,16.56,349.46,4,282.61c-1.72-9.12-2.65-18.4-4-27.6V225a26.88,26.88,0,0,0,.85-3.86c2.41-32.8,11.05-63.91,26.79-92.74C64.73,60.46,121.34,18.78,197.44,3.95,206.54,2.18,215.81,1.3,225,0Zm14.65,448c114.6.32,207.95-92.67,208.35-207.54.4-114.59-92.51-208-207.41-208.45S32.18,124.77,32,239.78C31.83,354.46,124.79,447.68,239.65,448Z" transform="translate(0 -0.01)"/><path class="cls-1" d="M304,128a64,64,0,1,1-128-.54C176.06,92.66,204.88,64,239.76,64A64,64,0,0,1,304,128Zm-32,.22A32,32,0,1,0,239.64,160,32,32,0,0,0,272,128.24Z" transform="translate(0 -0.01)"/><path class="cls-1" d="M128,176a64,64,0,1,1-.48,128c-35.33-.18-63.63-29-63.5-64.74C64.13,204.5,93.06,175.9,128,176Zm-.09,96A32,32,0,1,0,96,239.78,32,32,0,0,0,127.89,272Z" transform="translate(0 -0.01)"/><path class="cls-1" d="M288,239.5A64,64,0,0,1,352.74,176c35.28.26,63.5,29.25,63.26,65-.23,34.69-29.3,63.2-64.25,63A64,64,0,0,1,288,239.5ZM352.16,208A32,32,0,1,0,384,240.29,31.92,31.92,0,0,0,352.16,208Z" transform="translate(0 -0.01)"/><path class="cls-1" d="M240.17,288A64,64,0,0,1,304,352.43c0,34.8-28.86,63.58-63.68,63.58a64,64,0,1,1-.14-128Zm.13,32A32,32,0,1,0,272,352.43,31.93,31.93,0,0,0,240.3,320Z" transform="translate(0 -0.01)"/><path class="cls-1" d="M208,239.77A32,32,0,1,1,239.38,272,32,32,0,0,1,208,239.77Z" transform="translate(0 -0.01)"/></svg>