<svg id="Camada_1" data-name="Camada 1" xmlns="http://www.w3.org/2000/svg" viewBox="0 0 416 416"><defs><style>.cls-1{fill:#82212d;}</style></defs><title>fone</title><g id="_010101ff" data-name="#010101ff"><path class="cls-1" d="M416,32h32V448H416c0-13.22,0-26.44,0-39.65-26.15-5.89-52.26-12-78.37-18.06-12.27,21.59-31.51,39.26-54.48,48.85-32.94,14.14-72.61,10.8-102.76-8.58-30.09-18.82-50.31-52.73-51.79-88.28-21.44-5.38-43.11-9.9-64.59-15.13,0,8.28,0,16.56,0,24.85H32V128H64v24.82q132.39-30.77,264.88-61.18c29-6.61,58-13.5,87.1-20,0-13.21,0-26.43,0-39.64M64,185.26V294.7Q240,335.41,416,376q.11-136,0-272.05Q240,144.8,64,185.26m97.13,164.53a81.7,81.7,0,0,0,17.1,37.08,80,80,0,0,0,51.69,28.67c10.41,1.06,21.09.66,31.2-2.25a80,80,0,0,0,43.38-30.5c-27.61-6.56-55.3-12.79-82.95-19.23C201.4,359,181.34,354,161.13,349.79Z" transform="translate(-32 -32)"/></g></svg>