<svg id="Camada_1" data-name="Camada 1" xmlns="http://www.w3.org/2000/svg" viewBox="0 0 448 352"><defs><style>.cls-1{fill:#fff;}</style></defs><title>galeria</title><g id="_010101ff" data-name=" 010101ff"><path class="cls-1" d="M0,0H448V352H0V0M32,32V320H416V32Z"/><path class="cls-1" d="M90.53,64.69c16.38-3.43,33.89,8.7,36.66,25.17,3.81,16.54-8.33,34.52-25.05,37.32-16.52,3.85-34.52-8.3-37.32-25C60.88,85.39,73.48,67.13,90.53,64.69Z"/><path class="cls-1" d="M192,192.23q39.93-48,79.94-95.87Q328,192.12,383.78,288H64.25Q112.08,224.12,160,160.3c10.67,10.66,21.28,21.37,32,32m2,46.88c-10.13-10.19-20.35-20.27-30.43-30.49-.68.68-1.32,1.4-1.94,2.15q-17,22.62-33.91,45.23H328.36Q298,203.63,267.45,151.43c-24.71,29-48.77,58.57-73.39,87.68Z"/></g></svg>