<?xml version="1.0" encoding="UTF-8" ?>
<!DOCTYPE svg PUBLIC "-//W3C//DTD SVG 1.1//EN" "http://www.w3.org/Graphics/SVG/1.1/DTD/svg11.dtd">
<svg width="300pt" height="300pt" viewBox="0 0 300 300" version="1.1" xmlns="http://www.w3.org/2000/svg">
<g>
<path fill="#333" opacity="1.00" d=" M 133.18 1.11 C 164.70 -2.50 197.36 4.19 224.79 20.19 C 252.90 36.35 275.51 61.87 288.05 91.77 C 299.98 119.75 302.95 151.43 296.57 181.15 C 290.05 212.34 273.10 241.19 249.20 262.24 C 226.71 282.23 198.06 295.19 168.17 298.74 C 136.93 302.60 104.49 296.33 77.05 280.87 C 52.67 267.29 32.23 246.75 18.78 222.29 C 3.60 195.03 -2.56 162.91 1.25 131.95 C 4.79 102.01 17.76 73.31 37.78 50.79 C 62.00 23.22 96.66 5.04 133.18 1.11 M 96.93 91.10 C 81.21 96.08 67.79 107.86 60.86 122.83 C 53.49 138.33 53.31 157.05 60.28 172.72 C 66.69 187.41 79.26 199.26 94.31 204.77 C 107.31 209.70 122.04 209.83 135.15 205.23 C 150.06 200.12 162.73 188.84 169.51 174.61 C 175.40 162.67 176.90 148.73 174.17 135.74 C 154.27 135.75 134.38 135.77 114.49 135.73 C 114.49 144.16 114.48 152.59 114.49 161.02 C 125.75 161.18 137.01 160.95 148.26 161.14 C 143.00 174.39 129.43 184.01 115.02 183.58 C 98.77 183.78 83.71 171.18 80.81 155.23 C 78.75 145.05 81.52 134.05 88.16 126.06 C 94.63 118.12 104.73 113.21 114.99 113.20 C 123.41 113.00 131.76 116.21 138.16 121.63 C 144.14 115.77 150.14 109.92 156.11 104.04 C 140.50 89.60 117.14 84.46 96.93 91.10 M 208.22 116.65 C 208.35 123.64 208.22 130.64 208.31 137.63 C 201.35 137.58 194.40 137.62 187.44 137.59 C 187.45 142.80 187.43 148.01 187.46 153.22 C 194.41 153.16 201.36 153.25 208.31 153.16 C 208.25 160.07 208.32 166.98 208.25 173.89 C 213.43 173.93 218.61 173.93 223.80 173.89 C 223.73 166.98 223.79 160.08 223.75 153.18 C 230.74 153.23 237.73 153.18 244.73 153.22 C 244.68 148.01 244.65 142.80 244.75 137.59 C 237.75 137.62 230.74 137.61 223.73 137.60 C 223.82 130.62 223.69 123.64 223.82 116.66 C 218.62 116.67 213.42 116.68 208.22 116.65 Z" />
</g>
</svg>
