<svg id="Camada_1" data-name="Camada 1" xmlns="http://www.w3.org/2000/svg" viewBox="0 0 480 480"><defs><style>.cls-1{fill:#82212d;}</style></defs><title>info</title><g id="_010101ff" data-name="#010101ff"><path class="cls-1" d="M237.48,0h4.08c24.86.65,49.74,4.21,73.36,12.16a238.88,238.88,0,0,1,90,53.82c43.45,40.85,70.71,98.5,74.28,158.07.26,4.78.47,9.57.78,14.36v3.19c-.65,16.91-2,33.85-5.88,50.37A239.46,239.46,0,0,1,420.7,397.63c-37.52,43.22-91,72.3-147.72,79.89-10.4,1.63-20.93,1.84-31.41,2.48h-3.1c-17.56-.64-35.13-2.19-52.26-6.28-52.84-12-101.08-42.69-134.53-85.27A238.65,238.65,0,0,1,2.59,273.83C.87,263.17.63,252.38,0,241.62v-4.1C.64,229.29.64,221,1.75,212.8a237.42,237.42,0,0,1,25.49-83.5A239.81,239.81,0,0,1,221,.94c5.48-.32,11-.55,16.45-.94m-16,32.73A208,208,0,0,0,53.82,146.87C29.2,195.51,25.19,254,42.44,305.65a207.85,207.85,0,0,0,59.66,90.21c37,33,86.24,52.11,135.86,52.14A207.92,207.92,0,0,0,437.54,305.61,209.87,209.87,0,0,0,445.19,205,208,208,0,0,0,221.51,32.73Z"/><path class="cls-1" d="M224,96q16,0,32,0v64H224Z"/><path class="cls-1" d="M224,192q16,0,32,0V384q-16,0-32,0Z"/></g></svg>