<svg id="Camada_1" data-name="Camada 1" xmlns="http://www.w3.org/2000/svg" viewBox="0 0 448.01 448.01"><defs><style>.cls-1{fill:#fff;}</style></defs><title>jornal</title><path class="cls-1" d="M0,79.73H95.85V16.19H447.8c.07,1.46.21,3.06.21,4.66q0,172.2,0,344.4c0,39.05-27.6,66.56-66.79,66.57q-158,0-315.91,0c-31.45,0-57-20.07-63.72-50.17A61.65,61.65,0,0,1,.06,368.28Q-.06,226.32,0,84.36C0,83.06,0,81.75,0,79.73ZM120.84,399.82h3.84q129,0,257.93,0c19.62,0,33.38-13.73,33.38-33.31q0-157,0-313.91c0-1.45,0-2.89,0-4.46H128c0,2.11,0,3.91,0,5.71q0,156,0,311.91c0,3.49.13,7.09-.66,10.44C125.46,384,123.09,391.75,120.84,399.82ZM32,112c0,2.08,0,3.58,0,5.07Q32,242.05,32,367c0,18.5,14,32.8,31.83,32.83,18.16,0,32.13-14.23,32.14-33Q96,241.84,96,116.91c0-1.6-.16-3.2-.25-4.86Z"/><path class="cls-1" d="M383.79,80.17V207.55H160.4V80.17ZM192.28,112v63.48H351.65V112Z"/><path class="cls-1" d="M383.8,240.17v31.38H160.24V240.17Z"/><path class="cls-1" d="M383.8,304.17v31.37H160.24V304.17Z"/></svg>