<svg id="Camada_1" data-name="Camada 1" xmlns="http://www.w3.org/2000/svg" viewBox="0 0 448 447.78"><defs><style>.cls-1{fill:#fff;}</style></defs><title>acervo</title><g id="_010101ff" data-name="#010101ff"><path class="cls-1" d="M16,16c14.35.26,28.69.88,43,2,42.56,3.78,85.19,11.75,124.74,28.32C204,54.83,223.27,65.9,240,80.2,267.2,56.94,300.78,42.52,335,33c42-11.65,85.57-16.33,129-17V400a500.54,500.54,0,0,0-104.49,10.61C316.7,419.82,273.8,435.1,240,463.77c-22.42-19.12-49.31-32.3-77.1-41.68-41.52-13.88-85.26-20-128.87-22C28,400,22,400,16,400V16M48,49q-.06,160,0,320c26.82,2,53.61,5,79.9,10.85C161.29,387,194.08,398,224,414.64q.08-153.33,0-306.65a227.13,227.13,0,0,0-18.37-13.72C176.43,74.62,142.4,63.33,108,57c-19.82-3.79-39.88-6.21-60-8M351.18,61.44c-34.56,8.4-67.89,23.42-95.18,46.5q0,153.38,0,306.74a312.34,312.34,0,0,1,59.4-25.25c37.77-11.93,77.17-17.76,116.59-20.51q0-160,0-320C404.83,51.35,377.69,54.93,351.18,61.44Z" transform="translate(-16 -15.99)"/></g></svg>