<svg id="Camada_1" data-name="Camada 1" xmlns="http://www.w3.org/2000/svg" viewBox="0 0 447.8 480"><defs><style>.cls-1{fill:#fff;}</style></defs><title>mapa</title><g id="_010101ff" data-name="#fff"><path class="cls-1" d="M237.45,0h5c4.17.27,8.33.62,12.51.85a175.66,175.66,0,0,1,160.8,179.21c-.75,25.6-7.7,50.77-18.91,73.71-12.53,26-29.93,49.39-49.29,70.69C315.8,359.4,278.19,388.29,240,415.77c-19.53-14.26-39.12-28.48-57.66-44-29.2-24.41-56.55-51.46-78.43-82.73-18.53-26.58-33-56.67-37.84-88.94-7.41-48.44,7.52-99.55,39.12-136.91a175.68,175.68,0,0,1,99.9-59.49c10.65-2.31,21.53-3,32.37-3.67M213.91,34.22A144.49,144.49,0,0,0,96.64,161.15c-2.59,23.57,1.54,47.61,10.83,69.37,13.57,32.25,35.73,60.09,60.18,84.79,22.25,22.47,46.84,42.5,72.35,61.14,39.07-28.72,76.62-60.58,105.71-99.68,18.85-25.54,34.07-54.92,37.59-86.85,4.55-41-10.34-83.58-39-113.25A143.81,143.81,0,0,0,259,33.11,148.74,148.74,0,0,0,213.91,34.22Z" transform="translate(-16.09)"/><path class="cls-1" d="M230.55,96.77c28.46-3.86,58.25,9.59,74.62,33.12A81.21,81.21,0,0,1,319.92,178c-.63,13.29-4,26.54-10.86,38A80,80,0,0,1,257,254a79.1,79.1,0,0,1-42.64-2.4,79.82,79.82,0,0,1-45.91-111c11.59-23.81,35.74-41.07,62.13-43.86m.93,31.86A48.11,48.11,0,0,0,198.87,201c8.29,13.81,24,23.09,40.15,23,16.3.77,32.43-8,41.25-21.65A46.1,46.1,0,0,0,288,176c.47-16.78-9.22-33.13-23.65-41.5A48.16,48.16,0,0,0,231.48,128.63Z" transform="translate(-16.09)"/><path class="cls-1" d="M48.16,320c12.87,0,25.75,0,38.62,0,8.62,11.07,17.67,21.8,27.31,32q-20,0-40,0c-6.56,32-12.87,64-19.25,96q185.11,0,370.25,0c-6.46-32-12.69-64-19.29-96q-20,0-40,0c9.67-10.18,18.7-20.94,27.34-32,12.88,0,25.76,0,38.64,0,10.69,53.33,21.25,106.69,32.05,160H16.09C26.92,426.7,37.46,373.33,48.16,320Z" transform="translate(-16.09)"/></g></svg>