<svg id="Camada_1" data-name="Camada 1" xmlns="http://www.w3.org/2000/svg" viewBox="0 0 460 460"><defs><style>.cls-1{fill:#fff;}</style></defs><title>icon-pessoa</title><path class="cls-1" d="M5.72,453.7C6.13,411,17.14,371.83,39.54,335.91c22.3-35.74,52.54-62.91,90-82.16C68.54,194,73.19,98.64,132.17,44c54.64-50.59,141.57-50.26,195.88.69,58,54.38,62.95,149.1,2.2,208.7,78.54,43.53,120.09,109.87,124,200.27ZM418.55,421.8a7.74,7.74,0,0,0,.16-1.24,12.93,12.93,0,0,0-.22-2C404.26,352.15,366,305.17,304.15,277.26c-2.83-1.28-5.07-1.05-7.9.36q-66.14,33-132.49.25a9.67,9.67,0,0,0-9.27-.26Q73.56,313.91,46.09,398.19c-2.46,7.61-3.89,15.56-5.87,23.61ZM229.52,262c61.73.13,112.09-50,112.23-111.65S291.94,38.28,230.23,38.06,118,87.77,117.76,149.44A112.06,112.06,0,0,0,229.52,262Z"/></svg>