<svg id="Camada_1" data-name="Camada 1" xmlns="http://www.w3.org/2000/svg" viewBox="0 0 477.4 479.55"><defs><style>.cls-1{fill:#fff;}</style></defs><title>predio</title><path class="cls-1" d="M448.26,479.55h-416q0-23,0-46c0-15,.13-30-.07-45-.05-4,1.28-5.49,5.18-5.06a50.18,50.18,0,0,0,5.49,0H64V223.25H1.08L240.28,0,478.47,222.33l-.55,1.3H416.51v160h31.75Zm-208-436.71L81.23,191.3h318ZM64.48,447.21H415.86V415.8H64.48Zm79.44-63.89V223.95H96.26V383.32Zm80,0V223.78H176.52V383.34Zm32.58-.13h47.4V223.8h-47.4Zm80.13-159.45V383.14H384V223.76Z" transform="translate(-1.08)"/></svg>