<svg id="Camada_1" data-name="Camada 1" xmlns="http://www.w3.org/2000/svg" viewBox="0 0 480 480"><defs><style>.cls-1{fill:#fff;}</style></defs><title>radio</title><g id="_010101ff" data-name="#010101ff"><path class="cls-1" d="M414.51,0h2.93c6.88.74,13.76,3,19,7.64A32.58,32.58,0,0,1,447.94,32a32.71,32.71,0,0,1-10,23,32.83,32.83,0,0,1-22,8.95A33.5,33.5,0,0,1,394,55Q270.13,91.55,146.19,127.87c111.27.3,222.54,0,333.81.13V480H0V128c9.33,0,18.66,0,28,0a24.73,24.73,0,0,0,6.48-.59Q209.72,76,385,24.54c1.95-6.43,5.31-12.56,10.57-16.87C400.77,3,407.63.75,414.51,0M32,160V448H448V160Z"/><path class="cls-1" d="M165.54,192.7a111.73,111.73,0,1,1-90.91,64c16.2-35.38,52.06-60.87,90.91-64M154,227a81,81,0,0,0-41.9,29q63.87.06,127.73,0a88.93,88.93,0,0,0-13.71-14.19A79.34,79.34,0,0,0,154,227M97.32,288a90.85,90.85,0,0,0,0,31.93q78.68.11,157.34,0a90.79,90.79,0,0,0,0-31.92q-78.69-.11-157.36,0m14.79,64a89.41,89.41,0,0,0,13.72,14.19A79.35,79.35,0,0,0,198,381a81,81,0,0,0,41.83-29Q176,351.93,112.11,352Z"/><path class="cls-1" d="M378.5,192.66c16.38-3.44,33.91,8.69,36.69,25.16,3.79,16.25-7.88,34-24.2,37.2-16.42,4.3-34.68-7.34-38-23.93C348.45,214.08,361.11,195.17,378.5,192.66Z"/><path class="cls-1" d="M378.53,288.66c16.36-3.43,33.89,8.7,36.66,25.16,3.82,16.27-7.91,34-24.23,37.22-16.76,4.37-35.34-7.88-38.19-24.92C348.89,309.32,361.46,291.09,378.53,288.66Z"/></g></svg>