<?xml version="1.0" encoding="UTF-8" ?>
<!DOCTYPE svg PUBLIC "-//W3C//DTD SVG 1.1//EN" "http://www.w3.org/Graphics/SVG/1.1/DTD/svg11.dtd">
<svg width="416pt" height="416pt" viewBox="0 0 416 416" version="1.1" xmlns="http://www.w3.org/2000/svg">
<g>
<path fill="#333" id="svgsearch" opacity="1.00" d=" M 158.23 0.00 L 163.42 0.00 C 169.09 0.86 174.87 0.67 180.54 1.61 C 213.81 5.78 245.56 20.97 269.82 44.12 C 297.72 70.35 315.63 106.95 319.02 145.11 C 319.45 153.06 320.60 161.04 319.43 168.99 C 317.82 202.55 304.73 235.25 283.54 261.24 C 293.88 272.26 304.87 282.67 315.46 293.45 C 345.99 323.95 376.49 354.48 407.02 384.99 C 409.85 387.78 412.68 390.58 415.35 393.54 C 415.51 393.48 415.84 393.35 416.00 393.29 L 416.00 393.69 C 410.83 397.89 406.45 402.95 401.66 407.56 C 398.99 410.34 395.95 412.80 393.75 416.00 L 393.30 416.00 C 391.71 413.54 389.57 411.54 387.48 409.52 C 348.32 370.34 309.15 331.18 269.99 291.99 C 267.06 289.17 264.38 286.09 261.19 283.55 C 236.79 303.51 206.45 316.17 175.04 319.04 C 171.03 319.17 167.05 319.68 163.06 319.91 C 142.31 319.84 121.43 316.55 102.09 308.85 C 70.01 296.43 42.26 273.27 24.19 244.01 C 11.23 223.20 3.22 199.35 0.96 174.94 C 0.77 170.53 0.32 166.13 0.00 161.73 L 0.00 158.22 C 0.76 149.14 1.07 140.01 2.88 131.05 C 8.93 98.06 25.70 67.14 50.12 44.14 C 75.72 19.68 109.73 4.18 144.99 0.97 C 149.42 0.79 153.82 0.30 158.23 0.00 M 145.45 32.62 C 108.53 36.44 74.04 57.62 53.49 88.46 C 39.23 109.72 31.25 135.40 32.00 161.04 C 31.66 177.36 35.23 193.66 41.33 208.75 C 53.92 239.71 79.17 265.21 109.98 278.14 C 146.57 293.70 190.47 291.10 224.71 270.74 C 252.01 254.94 272.98 228.63 282.36 198.52 C 291.30 169.75 289.95 137.80 278.16 110.02 C 265.80 80.60 242.01 56.20 212.90 43.12 C 196.04 35.55 177.49 31.41 158.98 32.00 C 154.47 32.05 149.91 31.76 145.45 32.62 Z" />
</g>
</svg>
