<svg id="Camada_1" data-name="Camada 1" xmlns="http://www.w3.org/2000/svg" viewBox="0 0 415.88 447.73"><defs><style>.cls-1{fill:#fff;}</style></defs><title>timeline</title><g id="_010101ff" data-name=" 010101ff"><path class="cls-1" d="M55.39.63a63.72,63.72,0,0,1,71.67,54.62l.09.68c3.39,23.55-8.2,48.31-28.13,61.2A63.86,63.86,0,0,1,10.55,99Q8.8,96.32,7.32,93.5C-3.87,72.75-2,45.87,11.86,26.87A63.63,63.63,0,0,1,55.39.63m1.89,31.76A32.24,32.24,0,0,0,32.12,58.77c-.61,5.45-.49,11.14,1.61,16.29a32.26,32.26,0,0,0,23.5,20.27c13,2.87,27.42-3.33,34.14-14.9C99.31,67.85,96.69,50,85.55,40.14A32.44,32.44,0,0,0,57.28,32.39Z" transform="translate(0.02 -0.05)"/><path class="cls-1" d="M159.86,47.87h256v32h-256Z" transform="translate(0.02 -0.05)"/><path class="cls-1" d="M55.41,160.63A63.76,63.76,0,1,1,3.12,204.17c7.2-22.93,28.38-40.73,52.29-43.54m1.91,31.75a32.18,32.18,0,0,0-20.23,49.33C44.36,253,59,258.44,71.93,255a32.17,32.17,0,0,0-14.61-62.63Z" transform="translate(0.02 -0.05)"/><path class="cls-1" d="M159.86,207.87h256v32h-256Z" transform="translate(0.02 -0.05)"/><path class="cls-1" d="M55.37,320.63A63.86,63.86,0,1,1,4.74,359.78C13,338.94,33.08,323.3,55.37,320.63m1.85,31.74a32.61,32.61,0,0,0-13.49,6.39c-12,9.23-15.55,27.34-8.12,40.48C42.25,412,58,418.74,71.9,415a32.18,32.18,0,0,0-14.68-62.65Z" transform="translate(0.02 -0.05)"/><path class="cls-1" d="M159.86,367.87h256v32h-256Z" transform="translate(0.02 -0.05)"/></g></svg>