<svg id="Camada_1" data-name="Camada 1" xmlns="http://www.w3.org/2000/svg" viewBox="0 0 416 416"><defs><style>.cls-1{fill:#fff;}</style></defs><title>video</title><g id="_010101ff" data-name="#010101ff"><path class="cls-1" d="M32,32H448V448H32V32M64,64V96H96V64H64m64,0V224H352V64H128m256,0q0,16,0,32h32q0-16,0-32H384M64,128v32H96V128H64m320,0v32h32V128H384M64,192v32H96q0-16,0-32H64m320,0v32h32V192H384M64,256q0,16,0,32H96V256H64m64,0V416H352V256H128m256,0q0,16,0,32h32q0-16,0-32H384M64,320v32H96V320H64m320,0v32h32V320H384M64,384q0,16,0,32H96q0-16,0-32H64m320,0v32q16,0,32,0,0-16,0-32Z" transform="translate(-32 -32)"/></g></svg>