<svg id="Camada_1" data-name="Camada 1" xmlns="http://www.w3.org/2000/svg" viewBox="0 0 846.93 338.85" style="" class=""><title>webdoc-ufpa-60-anos-logo</title><path d="M570.37,15.48v32.6c0,4.42-.49,7.8-1.5,10.19a13.48,13.48,0,0,1-5.74,6.15A19.79,19.79,0,0,1,552.75,67a21,21,0,0,1-10.16-2.21,13.06,13.06,0,0,1-5.75-6.12,24.24,24.24,0,0,1-1.75-9.91V15.48h9.34v32.6q0,6.71,2.8,8.79A10.54,10.54,0,0,0,553.71,59a10,10,0,0,0,6.88-2.27q2.57-2.25,2.56-8.64V15.48Zm19.85,50.75h-9.4V15.48H612.9v7.84H590.22V37.2h17.84v7.62H590.22Zm38.4,0h-9.13V15.48h20.77q8.89,0,13.18,4.48a14.79,14.79,0,0,1,4.29,10.57,14.64,14.64,0,0,1-4.64,11.27,16.63,16.63,0,0,1-11.79,4.32H628.59V66.23Zm0-28h10.82q4.23,0,6.46-2.08a7.2,7.2,0,0,0,2.23-5.55,7.64,7.64,0,0,0-2.06-5.35Q644,23,638.61,23h-10v15.2Zm72.94,28-17-50.75H673.28L656.44,66.23h7.8l4-12.08h19.52l4.06,12.08Zm-16.27-19.4h-14.8l7.4-22.65Z" style="fill:#fff;stroke:#000;stroke-miterlimit:10;stroke-width:4px" class="NYVMqdXD_0"></path><path d="M673.78,73.65H675a72.59,72.59,0,0,1,16,22.72q-8.52,5.33-34,27.44l-8.41,9.67-1.13-.91-10.8,14V147l16.39-.87h8.37c12,0,23.17,4.87,32.17,11.87,46.11,36-8.26,69.95-38.21,93.87-16.7,13.35-29.74,19.94-39,19.94q-26.27,0-47.13-29.48a47.24,47.24,0,0,1-4.81-20.68V209.18c-1,0-16.86,4.72-16.86,3.94L540,215.94l-.78-1.17-.39.39h-1.26c-.52,0-.74-.43-.74-1.26l1.65-3.16-.52-.39h-6.37a4.89,4.89,0,0,0-4.68-3.17l-.87.74-.78-.74V206l5.59-5.59-.39-2H528a4.48,4.48,0,0,1,2-3.56h.78l1.13.39v-.39l1.3-2.38-.39-1.3h.39l4.29-1.52v-.87H536a7.31,7.31,0,0,1-4.47,1.65l-.35-.39v-.39c.56-.82,2-1.26,4-1.26l.45-.39v-.39l-.39-2.38c.43-1,22.46-8.83,35.29-13.87a14.93,14.93,0,0,0,8.76-8.41q4-10.8,42.31-49.38,36.61-37.39,52.2-39.89ZM657.41,167.9q0,2.14-11.06,5.07-5.59,2.67-39.89,15.09l-1.26-.48c-1.3,1.26-5.33,2.86-12.23,4.81a148.28,148.28,0,0,0-6.72,17.39c-1.17,0-2.12,2.9-2.77,8.67l.35,2c-1.26,0-1.91.82-1.91,2.43v12.57c0,6.37,2.38,9.54,7.15,9.54l12.57,1.13q31.48,0,72.36-54.11a40.7,40.7,0,0,0,4.37-10.71v-5.83q-2-5.21-15.38-7.57l-1.3,1.13Z" style="fill:#fff;stroke:#000;stroke-miterlimit:10;stroke-width:6px" class="NYVMqdXD_1"></path><path d="M759.73,48.78l.42.58v.46a17.1,17.1,0,0,1,6.66-1h3q22.81,0,56.87,38.58,17.27,21.31,17.25,42.2,0,17.15-13.21,45.24-23.45,37.77-43.08,43.08c-21.14,10.83-59.47,1.62-74.73-15,3.79-6.15,6-12.51,5.88-19q1.13,2.06,2.3,3.88,9.32,14.49,21.56,14.49h5.51q27.08,0,47.28-33.07,11.72-20.62,11.74-41.62v-7.08q0-38.58-26.41-51.78h-2l-1,1v1a6.43,6.43,0,0,0,2,4v.46l-1,1A78.23,78.23,0,0,0,765,72.7q-5.2,1-19.29,10.16c-.93,1.73-3.62,3.23-8.13,4.5,0,1.66-2.23,3.7-6.66,6.08l-3,6.66c-1.27,0-2.12,1.5-2.46,4.51l-9.7,12.78.54,2.46-5.62,15.79,1,4.62h-.46l.46.46v3h-.46l-1.65-.42v1.46l1,1.58-1,1.5,2,6.62-2,1,1.58,5.51-.54,3,.14.42a63.41,63.41,0,0,0-9.79-9.31,58.64,58.64,0,0,0-13.52-7.94c-1.43-8.46-.11-21.23,1.44-27.48q4.28-17.27,18.44-37.89,17.38-19.17,28-25,0-4.85,24.37-8.12ZM708.41,90H709l7.12-9.7h-.58a37.56,37.56,0,0,0-7.08,9.7Zm8.12-4.66-.46.58v.46h.46l.54-.46v-.58Zm4,3.62v2h.58V89Zm-8.12,14.21v1.46H713l.46-1.46Zm8.7-29.41-1.58,3c.58,0,1.27-1,2-3Zm1.48-1.61h.58a3.21,3.21,0,0,1,3-2v-.46h-1.58l-2,2.5Zm1,4v.58h1.58v-.58Z" style="fill:#fff;stroke:#000;stroke-miterlimit:10;stroke-width:6px" class="NYVMqdXD_2"></path><path d="M691.74,256.79l-8.54-1.06a12.77,12.77,0,0,1,5.28-8.91,18.23,18.23,0,0,1,10.9-3.18q5.77,0,9.23,2.32a9.91,9.91,0,0,1,4.36,5.5,38.69,38.69,0,0,1,.88,9.65v14.63c0,5.94.26,9.88.77,11.87H706.2a34.19,34.19,0,0,1-.55-7.14q-4,8.19-12,8.19a11.69,11.69,0,0,1-8.71-3.34q-3.35-3.32-3.35-9.08a13.81,13.81,0,0,1,4.81-11.1q4.81-4.07,16.68-4.08h1.86v-1.74a14,14,0,0,0-1.38-6.94c-.91-1.55-2.55-2.34-4.92-2.34q-5.79,0-6.94,6.71ZM705,266.72c-1.13-.12-2-.17-2.58-.17q-11.52,0-11.53,9,0,6.55,5.72,6.56,3.36,0,5.86-3.56c1.67-2.37,2.53-5.63,2.53-9.78v-2Zm18.81-22H732v6.61q3-7.64,10.63-7.65a11,11,0,0,1,7,2.09,9,9,0,0,1,3.37,5,43.52,43.52,0,0,1,.7,9.2v27.7H744.8v-27.2c0-3.73-.32-6.27-1-7.62s-2-2-4.15-2a6,6,0,0,0-5.14,2.57q-1.85,2.57-1.84,10.22v24h-8.88v-43Zm71.77,21q0,23-17,23-7.82,0-12.31-5.55t-4.49-17q0-22.49,17-22.49A15.06,15.06,0,0,1,791,249.17q4.53,5.49,4.53,16.58Zm-9.41.45q0-9.06-2-12.43a6.17,6.17,0,0,0-5.47-3.38q-7.49,0-7.49,15.81,0,8.08,1.74,12a6.17,6.17,0,0,0,11.47-.07q1.76-3.92,1.77-11.87Zm43.63-11.5-7,1.87q-1.89-6.45-7.2-6.45a5.19,5.19,0,0,0-5.43,4.94q0,.19,0,.39a4.47,4.47,0,0,0,1.52,3.75q1.52,1.2,7,3c4.49,1.51,7.72,3.19,9.7,5.08a10.4,10.4,0,0,1,3,7.9,12.64,12.64,0,0,1-4.25,9.62q-4.25,3.94-11.47,3.93-13.63,0-15.46-12.53l7.49-1.41q1.44,7.4,8.19,7.4a6.92,6.92,0,0,0,5.12-1.7,5.51,5.51,0,0,0,1.67-4,5.43,5.43,0,0,0-1.15-3.21q-1.13-1.59-6.39-3.3a44.52,44.52,0,0,1-7.59-3,11.4,11.4,0,0,1-5.86-10.07,12.5,12.5,0,0,1,4-9.33A14.2,14.2,0,0,1,816,243.7q10.71-.06,13.8,11Z" style="fill:#fff;stroke:#000;stroke-miterlimit:10;stroke-width:4px" class="NYVMqdXD_3"></path><path d="M685.33,300.11h2.46v18.21h3.32v2.49H680.94v-2.49h3.56v-14a12.26,12.26,0,0,1-3.65,2.91V304a13.85,13.85,0,0,0,4.48-3.9Zm11,16.58,3-.86q.66,2.73,2.9,2.73a2.84,2.84,0,0,0,2.74-2,16.39,16.39,0,0,0,.91-5.73,4.44,4.44,0,0,1-4.19,2.69,5.15,5.15,0,0,1-4-1.84,8,8,0,0,1,.1-9.81,6,6,0,0,1,4.66-1.92q6.62,0,6.62,9.67,0,11.55-7,11.55a5.77,5.77,0,0,1-3.55-1,6.77,6.77,0,0,1-2.13-3.47Zm9.18-10a4.85,4.85,0,0,0-.83-2.94,2.65,2.65,0,0,0-2.27-1.14,2.77,2.77,0,0,0-2.26,1.07,5.72,5.72,0,0,0,0,6,2.71,2.71,0,0,0,2.29,1.09,2.63,2.63,0,0,0,2.31-1.19,5,5,0,0,0,.81-2.9Zm10.58-6.33h10.62l-.31,3h-7.77l-.3,5.68a4.5,4.5,0,0,1,3.78-1.9,5.14,5.14,0,0,1,4.11,1.8,7.47,7.47,0,0,1,1.54,5,7.39,7.39,0,0,1-1.85,5.36,6.49,6.49,0,0,1-4.89,1.91,6.66,6.66,0,0,1-4.16-1.34,6.06,6.06,0,0,1-2.22-4l3-.74q.71,3.22,3.46,3.22,3.35,0,3.36-4.35a5,5,0,0,0-.83-3.06,2.87,2.87,0,0,0-2.44-1.1,3.28,3.28,0,0,0-3.21,2.24l-2.55-.54.64-11.25Zm17,0h11.82v2.38a25.54,25.54,0,0,0-4.07,8.1,33.15,33.15,0,0,0-1.52,10h-3.59a28.46,28.46,0,0,1,6.15-17.5h-9.07l.28-3Zm17.12,11.54h6.48v2.52h-6.48Zm14.44-5-3.07-.65a8.18,8.18,0,0,1,2.24-4.69,6.07,6.07,0,0,1,4.33-1.6,5.72,5.72,0,0,1,6.14,6,8.85,8.85,0,0,1-2.35,5.81,41.16,41.16,0,0,1-6.77,6h9.24l-.15,3H761.59v-3q5.93-5.13,7.57-7.47a7.62,7.62,0,0,0,1.64-4.22,3.82,3.82,0,0,0-.77-2.46,2.51,2.51,0,0,0-2.07-1q-2.78,0-3.3,4.15Zm28.78,3.42q0,5.73-1.7,8.29a5.6,5.6,0,0,1-5,2.56q-6.68,0-6.68-10.36,0-5.74,1.71-8.29a5.62,5.62,0,0,1,5-2.56q6.68,0,6.68,10.36Zm-3.5.25a17.16,17.16,0,0,0-.8-6.32,2.46,2.46,0,0,0-4.74,0q-.8,1.75-.8,6.31,0,4.91.89,6.52a2.61,2.61,0,0,0,2.29,1.61,2.55,2.55,0,0,0,2.39-1.83,17.54,17.54,0,0,0,.79-6.3Zm14.13-10.45h2.46v18.21h3.32v2.49H799.66v-2.49h3.56v-14a12.26,12.26,0,0,1-3.63,2.87V304a13.86,13.86,0,0,0,4.48-3.9Zm10.61.22h11.82v2.38a25.54,25.54,0,0,0-4.07,8.1,33.15,33.15,0,0,0-1.52,10h-3.59a28.46,28.46,0,0,1,6.15-17.5h-9.07Z" style="fill:#fff;stroke:#000;stroke-miterlimit:10;stroke-width:2px" class="NYVMqdXD_4"></path><path d="M87.39,94.51h-.61l-12,92.25H28.51L4.59,13.64H37.4L55.19,150.16h.61l16-136.52h32.51l16.56,137.51h.61L138.59,13.64H168l-23.9,173.12H99.35Z" style="fill:#fff;stroke:#000;stroke-miterlimit:10;stroke-width:8px" class="NYVMqdXD_5"></path><path d="M224.08,86.6h46.31v24.73H224.08V162h58.27v24.73h-92V13.64h92V38.37H224.08Z" style="fill:#fff;stroke:#000;stroke-miterlimit:10;stroke-width:8px" class="NYVMqdXD_6"></path><path d="M402.27,52.86V59c0,17.81-6.47,28.94-20.88,34.62v.49c17.35,5.69,24.12,18.55,24.12,36.85v14.1c0,26.71-16.77,41.05-49.12,41.05h-50.9V13h48.83C387.85,13,402.27,26.15,402.27,52.86ZM337.85,37.78V83.53H350.5c12.06,0,19.41-4.45,19.41-18.3V55.59c0-12.37-5-17.81-16.47-17.81Zm0,70.49v53.17h18.53c10.88,0,16.77-4.21,16.77-17.07V129.29c0-16.08-6.18-21-20.88-21Z" style="fill:#fff;stroke:#000;stroke-miterlimit:10;stroke-width:8px" class="NYVMqdXD_7"></path><path d="M381.46,244c-5.86-5.05-14.19-8-23.83-8-19.29,0-33.29,12.06-33.29,28.69s14,28.68,33.29,28.68c9.65,0,18-2.93,23.83-8.15l26.48,22.49c-12.86,11.08-30.64,18.09-50.31,18.09-39.15,0-70.93-27.38-70.93-61.12s31.78-61.12,70.93-61.12c19.48,0,37.07,6.68,49.93,17.76Z" style="fill:#fff;stroke:#000;stroke-miterlimit:10;stroke-width:8px" class="NYVMqdXD_8"></path><path d="M277.4,274l-50.3-35L263,223a61.48,61.48,0,0,1,14.36,51Z" style="fill:#fff;stroke:#000;stroke-miterlimit:10;stroke-width:6px" class="NYVMqdXD_9"></path><path d="M230.18,322.48,232,283.33l-54.52,28.72a61.6,61.6,0,0,0,52.66,10.43Z" style="fill:#fff;stroke:#000;stroke-miterlimit:10;stroke-width:6px" class="NYVMqdXD_10"></path><path d="M236.83,321.83c1.87-.65,3.75-1.37,5.57-2.2a61.26,61.26,0,0,0,33.3-38l-32.3-22.2Z" style="fill:#fff;stroke:#000;stroke-miterlimit:10;stroke-width:6px" class="NYVMqdXD_11"></path><path d="M171.4,304.86l35.8-16.25-50.54-36.22a61.26,61.26,0,0,0-1.07,11.39v.07a60.88,60.88,0,0,0,5.48,25.25,62,62,0,0,0,10.35,15.75Z" style="fill:#fff;stroke:#000;stroke-miterlimit:10;stroke-width:6px" class="NYVMqdXD_12"></path><path d="M196.59,205.79c-1.68.6-3.35,1.25-5,2a61.31,61.31,0,0,0-33,36.87l32.12,23Z" style="fill:#fff;stroke:#000;stroke-miterlimit:10;stroke-width:6px" class="NYVMqdXD_13"></path><path d="M203.13,205.92l-.78,39.18,53.73-30.17a61.67,61.67,0,0,0-52.95-9Z" style="fill:#fff;stroke:#000;stroke-miterlimit:10;stroke-width:6px" class="NYVMqdXD_14"></path><path d="M77,202.61H25.32V322.74H77c38.48,0,69.71-26.91,69.71-60.07S115.47,202.61,77,202.61Zm-3.68,88.47H57.59V233.23h15.7c18.54,0,33.67,13,33.67,28.85s-15.11,29-33.65,29Z" style="fill:#fff;stroke:#000;stroke-miterlimit:10;stroke-width:8px" class="NYVMqdXD_15"></path><path d="M207.59,249.27c-15.24,10.23-7.92,33.95,10.27,33.95s25.52-23.7,10.27-33.95a18.55,18.55,0,0,0-20.55,0Z" style="fill:#fff;stroke:#000;stroke-miterlimit:10;stroke-width:6px" class="NYVMqdXD_16"></path><path d="M467.22,0L467.22,338.85" class="NYVMqdXD_17"></path><path style="fill:none;stroke:#000;stroke-miterlimit:10;stroke-width:6px" d="M467.22,0L467.22,338.85" class="NYVMqdXD_18"></path><style>.NYVMqdXD_0{stroke-dasharray:913 915;stroke-dashoffset:914;animation:NYVMqdXD_draw_0 1400ms linear 0ms infinite,NYVMqdXD_fade 1400ms linear 0ms infinite;}.NYVMqdXD_1{stroke-dasharray:979 981;stroke-dashoffset:980;animation:NYVMqdXD_draw_1 1400ms linear 0ms infinite,NYVMqdXD_fade 1400ms linear 0ms infinite;}.NYVMqdXD_2{stroke-dasharray:921 923;stroke-dashoffset:922;animation:NYVMqdXD_draw_2 1400ms linear 0ms infinite,NYVMqdXD_fade 1400ms linear 0ms infinite;}.NYVMqdXD_3{stroke-dasharray:873 875;stroke-dashoffset:874;animation:NYVMqdXD_draw_3 1400ms linear 0ms infinite,NYVMqdXD_fade 1400ms linear 0ms infinite;}.NYVMqdXD_4{stroke-dasharray:686 688;stroke-dashoffset:687;animation:NYVMqdXD_draw_4 1400ms linear 0ms infinite,NYVMqdXD_fade 1400ms linear 0ms infinite;}.NYVMqdXD_5{stroke-dasharray:1276 1278;stroke-dashoffset:1277;animation:NYVMqdXD_draw_5 1400ms linear 0ms infinite,NYVMqdXD_fade 1400ms linear 0ms infinite;}.NYVMqdXD_6{stroke-dasharray:740 742;stroke-dashoffset:741;animation:NYVMqdXD_draw_6 1400ms linear 0ms infinite,NYVMqdXD_fade 1400ms linear 0ms infinite;}.NYVMqdXD_7{stroke-dasharray:836 838;stroke-dashoffset:837;animation:NYVMqdXD_draw_7 1400ms linear 0ms infinite,NYVMqdXD_fade 1400ms linear 0ms infinite;}.NYVMqdXD_8{stroke-dasharray:536 538;stroke-dashoffset:537;animation:NYVMqdXD_draw_8 1400ms linear 0ms infinite,NYVMqdXD_fade 1400ms linear 0ms infinite;}.NYVMqdXD_9{stroke-dasharray:156 158;stroke-dashoffset:157;animation:NYVMqdXD_draw_9 1400ms linear 0ms infinite,NYVMqdXD_fade 1400ms linear 0ms infinite;}.NYVMqdXD_10{stroke-dasharray:157 159;stroke-dashoffset:158;animation:NYVMqdXD_draw_10 1400ms linear 0ms infinite,NYVMqdXD_fade 1400ms linear 0ms infinite;}.NYVMqdXD_11{stroke-dasharray:161 163;stroke-dashoffset:162;animation:NYVMqdXD_draw_11 1400ms linear 0ms infinite,NYVMqdXD_fade 1400ms linear 0ms infinite;}.NYVMqdXD_12{stroke-dasharray:158 160;stroke-dashoffset:159;animation:NYVMqdXD_draw_12 1400ms linear 0ms infinite,NYVMqdXD_fade 1400ms linear 0ms infinite;}.NYVMqdXD_13{stroke-dasharray:158 160;stroke-dashoffset:159;animation:NYVMqdXD_draw_13 1400ms linear 0ms infinite,NYVMqdXD_fade 1400ms linear 0ms infinite;}.NYVMqdXD_14{stroke-dasharray:157 159;stroke-dashoffset:158;animation:NYVMqdXD_draw_14 1400ms linear 0ms infinite,NYVMqdXD_fade 1400ms linear 0ms infinite;}.NYVMqdXD_15{stroke-dasharray:616 618;stroke-dashoffset:617;animation:NYVMqdXD_draw_15 1400ms linear 0ms infinite,NYVMqdXD_fade 1400ms linear 0ms infinite;}.NYVMqdXD_16{stroke-dasharray:117 119;stroke-dashoffset:118;animation:NYVMqdXD_draw_16 1400ms linear 0ms infinite,NYVMqdXD_fade 1400ms linear 0ms infinite;}.NYVMqdXD_17{stroke-dasharray:339 341;stroke-dashoffset:340;animation:NYVMqdXD_draw_17 1400ms linear 0ms infinite,NYVMqdXD_fade 1400ms linear 0ms infinite;}.NYVMqdXD_18{stroke-dasharray:339 341;stroke-dashoffset:340;animation:NYVMqdXD_draw_18 1400ms linear 0ms infinite,NYVMqdXD_fade 1400ms linear 0ms infinite;}@keyframes NYVMqdXD_draw{100%{stroke-dashoffset:0;}}@keyframes NYVMqdXD_fade{0%{stroke-opacity:1;}71.42857142857143%{stroke-opacity:1;}100%{stroke-opacity:0;}}@keyframes NYVMqdXD_draw_0{0%{stroke-dashoffset: 914}47.61904761904762%{ stroke-dashoffset: 0;}100%{ stroke-dashoffset: 0;}}@keyframes NYVMqdXD_draw_1{1.3227513227513228%{stroke-dashoffset: 980}48.94179894179894%{ stroke-dashoffset: 0;}100%{ stroke-dashoffset: 0;}}@keyframes NYVMqdXD_draw_2{2.6455026455026456%{stroke-dashoffset: 922}50.264550264550266%{ stroke-dashoffset: 0;}100%{ stroke-dashoffset: 0;}}@keyframes NYVMqdXD_draw_3{3.968253968253968%{stroke-dashoffset: 874}51.587301587301596%{ stroke-dashoffset: 0;}100%{ stroke-dashoffset: 0;}}@keyframes NYVMqdXD_draw_4{5.291005291005291%{stroke-dashoffset: 687}52.91005291005292%{ stroke-dashoffset: 0;}100%{ stroke-dashoffset: 0;}}@keyframes NYVMqdXD_draw_5{6.613756613756613%{stroke-dashoffset: 1277}54.23280423280424%{ stroke-dashoffset: 0;}100%{ stroke-dashoffset: 0;}}@keyframes NYVMqdXD_draw_6{7.936507936507936%{stroke-dashoffset: 741}55.55555555555556%{ stroke-dashoffset: 0;}100%{ stroke-dashoffset: 0;}}@keyframes NYVMqdXD_draw_7{9.25925925925926%{stroke-dashoffset: 837}56.87830687830689%{ stroke-dashoffset: 0;}100%{ stroke-dashoffset: 0;}}@keyframes NYVMqdXD_draw_8{10.582010582010582%{stroke-dashoffset: 537}58.20105820105821%{ stroke-dashoffset: 0;}100%{ stroke-dashoffset: 0;}}@keyframes NYVMqdXD_draw_9{11.904761904761905%{stroke-dashoffset: 157}59.52380952380953%{ stroke-dashoffset: 0;}100%{ stroke-dashoffset: 0;}}@keyframes NYVMqdXD_draw_10{13.227513227513226%{stroke-dashoffset: 158}60.84656084656086%{ stroke-dashoffset: 0;}100%{ stroke-dashoffset: 0;}}@keyframes NYVMqdXD_draw_11{14.550264550264549%{stroke-dashoffset: 162}62.16931216931217%{ stroke-dashoffset: 0;}100%{ stroke-dashoffset: 0;}}@keyframes NYVMqdXD_draw_12{15.873015873015872%{stroke-dashoffset: 159}63.49206349206349%{ stroke-dashoffset: 0;}100%{ stroke-dashoffset: 0;}}@keyframes NYVMqdXD_draw_13{17.195767195767196%{stroke-dashoffset: 159}64.81481481481482%{ stroke-dashoffset: 0;}100%{ stroke-dashoffset: 0;}}@keyframes NYVMqdXD_draw_14{18.51851851851852%{stroke-dashoffset: 158}66.13756613756614%{ stroke-dashoffset: 0;}100%{ stroke-dashoffset: 0;}}@keyframes NYVMqdXD_draw_15{19.841269841269842%{stroke-dashoffset: 617}67.46031746031747%{ stroke-dashoffset: 0;}100%{ stroke-dashoffset: 0;}}@keyframes NYVMqdXD_draw_16{21.164021164021165%{stroke-dashoffset: 118}68.78306878306879%{ stroke-dashoffset: 0;}100%{ stroke-dashoffset: 0;}}@keyframes NYVMqdXD_draw_17{22.486772486772487%{stroke-dashoffset: 340}70.1058201058201%{ stroke-dashoffset: 0;}100%{ stroke-dashoffset: 0;}}@keyframes NYVMqdXD_draw_18{23.80952380952381%{stroke-dashoffset: 340}71.42857142857144%{ stroke-dashoffset: 0;}100%{ stroke-dashoffset: 0;}}</style></svg>